<?xml version="1.0" encoding="UTF-8"?>
<svg id="_レイヤー_1" data-name="レイヤー_1" xmlns="http://www.w3.org/2000/svg" version="1.1" xmlns:xlink="http://www.w3.org/1999/xlink" viewBox="0 0 781.3 420.7">
  <!-- Generator: Adobe Illustrator 29.8.2, SVG Export Plug-In . SVG Version: 2.1.1 Build 3)  -->
  <defs>
    <style>
      .st0 {
        fill: url(#_名称未設定グラデーション_18);
      }

      .st1 {
        fill: url(#_名称未設定グラデーション_5);
      }

      .st2 {
        fill: url(#_名称未設定グラデーション_13);
      }

      .st3 {
        fill: url(#_名称未設定グラデーション_6);
      }

      .st4 {
        fill: #ffd45f;
      }

      .st5 {
        fill: url(#_名称未設定グラデーション_27);
      }

      .st6, .st7 {
        fill: #fff;
      }

      .st8 {
        fill: url(#_名称未設定グラデーション_2);
      }

      .st9 {
        fill: url(#_名称未設定グラデーション_11);
      }

      .st7, .st10 {
        fill-rule: evenodd;
      }

      .st11 {
        fill: #e0f0be;
      }

      .st12 {
        fill: url(#_名称未設定グラデーション_14);
      }

      .st13 {
        fill: url(#_名称未設定グラデーション_15);
      }

      .st14 {
        fill: url(#_名称未設定グラデーション);
      }

      .st15 {
        fill: url(#_名称未設定グラデーション_12);
      }

      .st16 {
        fill: url(#_名称未設定グラデーション_8);
      }

      .st17 {
        fill: #add4eb;
      }

      .st10 {
        fill: #fffc7b;
      }

      .st18 {
        fill: url(#_名称未設定グラデーション_26);
      }

      .st19 {
        fill: #fff2cf;
      }

      .st20 {
        fill: url(#_名称未設定グラデーション_4);
      }

      .st21 {
        fill: url(#_名称未設定グラデーション_3);
      }

      .st22 {
        fill: #ffd052;
      }

      .st23 {
        fill: url(#_名称未設定グラデーション_23);
      }

      .st24 {
        fill: #ffce4b;
      }

      .st25 {
        fill: url(#_名称未設定グラデーション_22);
      }

      .st26 {
        fill: url(#_名称未設定グラデーション_24);
      }

      .st27 {
        fill: url(#_名称未設定グラデーション_10);
      }

      .st28 {
        fill: url(#_名称未設定グラデーション_20);
      }

      .st29 {
        fill: #3a95cd;
      }

      .st30 {
        fill: url(#_名称未設定グラデーション_25);
      }

      .st31 {
        fill: url(#_名称未設定グラデーション_7);
      }

      .st32 {
        fill: #696;
        stroke: #696;
        stroke-miterlimit: 10;
        stroke-width: 6px;
      }

      .st33 {
        fill: url(#_名称未設定グラデーション_9);
      }

      .st34 {
        fill: #5aa8d6;
      }

      .st35 {
        fill: url(#_名称未設定グラデーション_21);
      }

      .st36 {
        fill: url(#_名称未設定グラデーション_17);
      }

      .st37 {
        fill: url(#_名称未設定グラデーション_16);
      }

      .st38 {
        fill: url(#_名称未設定グラデーション_19);
      }
    </style>
    <linearGradient id="_名称未設定グラデーション" data-name="名称未設定グラデーション" x1="85.4" y1="684.4" x2="85.4" y2="756.9" gradientTransform="translate(0 -384.4)" gradientUnits="userSpaceOnUse">
      <stop offset="0" stop-color="#65b83d"/>
      <stop offset=".5" stop-color="#c2e9a5"/>
      <stop offset="1" stop-color="#63b63c"/>
    </linearGradient>
    <linearGradient id="_名称未設定グラデーション_2" data-name="名称未設定グラデーション 2" x1="133.2" y1="684.2" x2="133.2" y2="757" gradientTransform="translate(0 -384.4)" gradientUnits="userSpaceOnUse">
      <stop offset="0" stop-color="#65b83d"/>
      <stop offset=".5" stop-color="#c2e9a5"/>
      <stop offset="1" stop-color="#63b63c"/>
    </linearGradient>
    <linearGradient id="_名称未設定グラデーション_3" data-name="名称未設定グラデーション 3" x1="184" y1="688.5" x2="184" y2="755.5" gradientTransform="translate(0 -384.4)" gradientUnits="userSpaceOnUse">
      <stop offset="0" stop-color="#65b83d"/>
      <stop offset=".5" stop-color="#c2e9a5"/>
      <stop offset="1" stop-color="#63b63c"/>
    </linearGradient>
    <linearGradient id="_名称未設定グラデーション_4" data-name="名称未設定グラデーション 4" x1="238.5" y1="686.3" x2="238.5" y2="756.2" gradientTransform="translate(0 -384.4)" gradientUnits="userSpaceOnUse">
      <stop offset="0" stop-color="#65b83d"/>
      <stop offset=".5" stop-color="#c2e9a5"/>
      <stop offset="1" stop-color="#63b63c"/>
    </linearGradient>
    <linearGradient id="_名称未設定グラデーション_5" data-name="名称未設定グラデーション 5" x1="288.1" y1="684.3" x2="288.1" y2="756.8" gradientTransform="translate(0 -384.4)" gradientUnits="userSpaceOnUse">
      <stop offset="0" stop-color="#65b83d"/>
      <stop offset=".5" stop-color="#c2e9a5"/>
      <stop offset="1" stop-color="#63b63c"/>
    </linearGradient>
    <linearGradient id="_名称未設定グラデーション_6" data-name="名称未設定グラデーション 6" x1="339.1" y1="684.2" x2="339.1" y2="757" gradientTransform="translate(0 -384.4)" gradientUnits="userSpaceOnUse">
      <stop offset="0" stop-color="#65b83d"/>
      <stop offset=".5" stop-color="#c2e9a5"/>
      <stop offset="1" stop-color="#63b63c"/>
    </linearGradient>
    <linearGradient id="_名称未設定グラデーション_7" data-name="名称未設定グラデーション 7" x1="389.9" y1="688.5" x2="389.9" y2="755.5" gradientTransform="translate(0 -384.4)" gradientUnits="userSpaceOnUse">
      <stop offset="0" stop-color="#65b83d"/>
      <stop offset=".5" stop-color="#c2e9a5"/>
      <stop offset="1" stop-color="#63b63c"/>
    </linearGradient>
    <linearGradient id="_名称未設定グラデーション_8" data-name="名称未設定グラデーション 8" x1="435.4" y1="686.3" x2="435.4" y2="756.2" gradientTransform="translate(0 -384.4)" gradientUnits="userSpaceOnUse">
      <stop offset="0" stop-color="#65b83d"/>
      <stop offset=".5" stop-color="#c2e9a5"/>
      <stop offset="1" stop-color="#63b63c"/>
    </linearGradient>
    <linearGradient id="_名称未設定グラデーション_9" data-name="名称未設定グラデーション 9" x1="483.6" y1="684.4" x2="483.6" y2="756.9" gradientTransform="translate(0 -384.4)" gradientUnits="userSpaceOnUse">
      <stop offset="0" stop-color="#65b83d"/>
      <stop offset=".5" stop-color="#c2e9a5"/>
      <stop offset="1" stop-color="#63b63c"/>
    </linearGradient>
    <linearGradient id="_名称未設定グラデーション_10" data-name="名称未設定グラデーション 10" x1="531.4" y1="684.2" x2="531.4" y2="757" gradientTransform="translate(0 -384.4)" gradientUnits="userSpaceOnUse">
      <stop offset="0" stop-color="#65b83d"/>
      <stop offset=".5" stop-color="#c2e9a5"/>
      <stop offset="1" stop-color="#63b63c"/>
    </linearGradient>
    <linearGradient id="_名称未設定グラデーション_11" data-name="名称未設定グラデーション 11" x1="589.3" y1="684.6" x2="589.3" y2="756.9" gradientTransform="translate(0 -384.4)" gradientUnits="userSpaceOnUse">
      <stop offset="0" stop-color="#65b83d"/>
      <stop offset=".5" stop-color="#c2e9a5"/>
      <stop offset="1" stop-color="#63b63c"/>
    </linearGradient>
    <linearGradient id="_名称未設定グラデーション_12" data-name="名称未設定グラデーション 12" x1="650" y1="684.2" x2="650" y2="757" gradientTransform="translate(0 -384.4)" gradientUnits="userSpaceOnUse">
      <stop offset="0" stop-color="#65b83d"/>
      <stop offset=".5" stop-color="#c2e9a5"/>
      <stop offset="1" stop-color="#63b63c"/>
    </linearGradient>
    <linearGradient id="_名称未設定グラデーション_13" data-name="名称未設定グラデーション 13" x1="700.2" y1="686.1" x2="700.2" y2="752.9" gradientTransform="translate(0 -384.4)" gradientUnits="userSpaceOnUse">
      <stop offset="0" stop-color="#65b83d"/>
      <stop offset=".5" stop-color="#c2e9a5"/>
      <stop offset="1" stop-color="#63b63c"/>
    </linearGradient>
    <linearGradient id="_名称未設定グラデーション_14" data-name="名称未設定グラデーション 14" x1="685.6" y1="470.2" x2="685.6" y2="695.2" gradientTransform="translate(0 -384.4)" gradientUnits="userSpaceOnUse">
      <stop offset="0" stop-color="#d2c0b5"/>
      <stop offset="1" stop-color="#705545"/>
    </linearGradient>
    <linearGradient id="_名称未設定グラデーション_15" data-name="名称未設定グラデーション 15" x1="664.3" y1="470.2" x2="664.3" y2="695.2" gradientTransform="translate(0 -384.4)" gradientUnits="userSpaceOnUse">
      <stop offset="0" stop-color="#d2c0b5"/>
      <stop offset="1" stop-color="#705545"/>
    </linearGradient>
    <linearGradient id="_名称未設定グラデーション_16" data-name="名称未設定グラデーション 16" x1="530.3" y1="467.2" x2="530.3" y2="692.2" gradientTransform="translate(0 -384.4)" gradientUnits="userSpaceOnUse">
      <stop offset="0" stop-color="#d2c0b5"/>
      <stop offset="1" stop-color="#705545"/>
    </linearGradient>
    <linearGradient id="_名称未設定グラデーション_17" data-name="名称未設定グラデーション 17" x1="366.1" y1="443.2" x2="366.1" y2="679.2" gradientTransform="translate(0 -384.4)" gradientUnits="userSpaceOnUse">
      <stop offset="0" stop-color="#bcff78"/>
      <stop offset="1" stop-color="#62b53b"/>
    </linearGradient>
    <linearGradient id="_名称未設定グラデーション_18" data-name="名称未設定グラデーション 18" x1="410.2" y1="443.2" x2="410.2" y2="679.2" gradientTransform="translate(0 -384.4)" gradientUnits="userSpaceOnUse">
      <stop offset="0" stop-color="#bcff78"/>
      <stop offset="1" stop-color="#62b53b"/>
    </linearGradient>
    <linearGradient id="_名称未設定グラデーション_19" data-name="名称未設定グラデーション 19" x1="314" y1="443.2" x2="314" y2="679.2" gradientTransform="translate(0 -384.4)" gradientUnits="userSpaceOnUse">
      <stop offset="0" stop-color="#bcff78"/>
      <stop offset="1" stop-color="#62b53b"/>
    </linearGradient>
    <linearGradient id="_名称未設定グラデーション_20" data-name="名称未設定グラデーション 20" x1="367.2" y1="443.2" x2="367.2" y2="679.2" gradientTransform="translate(0 -384.4)" gradientUnits="userSpaceOnUse">
      <stop offset="0" stop-color="#bcff78"/>
      <stop offset="1" stop-color="#62b53b"/>
    </linearGradient>
    <linearGradient id="_名称未設定グラデーション_21" data-name="名称未設定グラデーション 21" x1="211.7" y1="447.2" x2="211.7" y2="683.2" gradientTransform="translate(0 -384.4)" gradientUnits="userSpaceOnUse">
      <stop offset="0" stop-color="#bcff78"/>
      <stop offset="1" stop-color="#62b53b"/>
    </linearGradient>
    <linearGradient id="_名称未設定グラデーション_22" data-name="名称未設定グラデーション 22" x1="107.5" y1="56.5" x2="107.5" y2="343.1" gradientTransform="translate(0 419.9) scale(1 -1)" gradientUnits="userSpaceOnUse">
      <stop offset="0" stop-color="#bcff78"/>
      <stop offset="1" stop-color="#62b53b"/>
    </linearGradient>
    <linearGradient id="_名称未設定グラデーション_23" data-name="名称未設定グラデーション 23" x1="134.3" y1="447.2" x2="134.3" y2="683.2" gradientTransform="translate(0 -384.4)" gradientUnits="userSpaceOnUse">
      <stop offset="0" stop-color="#bcff78"/>
      <stop offset="1" stop-color="#62b53b"/>
    </linearGradient>
    <linearGradient id="_名称未設定グラデーション_24" data-name="名称未設定グラデーション 24" x1="77" y1="447.2" x2="77" y2="683.2" gradientTransform="translate(0 -384.4)" gradientUnits="userSpaceOnUse">
      <stop offset="0" stop-color="#bcff78"/>
      <stop offset="1" stop-color="#62b53b"/>
    </linearGradient>
    <linearGradient id="_名称未設定グラデーション_25" data-name="名称未設定グラデーション 25" x1="255.1" y1="447.2" x2="255.1" y2="683.2" gradientTransform="translate(0 -384.4)" gradientUnits="userSpaceOnUse">
      <stop offset="0" stop-color="#bcff78"/>
      <stop offset="1" stop-color="#62b53b"/>
    </linearGradient>
    <linearGradient id="_名称未設定グラデーション_26" data-name="名称未設定グラデーション 26" x1="211.1" y1="447.2" x2="211.1" y2="683.2" gradientTransform="translate(0 -384.4)" gradientUnits="userSpaceOnUse">
      <stop offset="0" stop-color="#bcff78"/>
      <stop offset="1" stop-color="#62b53b"/>
    </linearGradient>
    <linearGradient id="_名称未設定グラデーション_27" data-name="名称未設定グラデーション 27" x1="169.6" y1="447.2" x2="169.6" y2="683.2" gradientTransform="translate(0 -384.4)" gradientUnits="userSpaceOnUse">
      <stop offset="0" stop-color="#bcff78"/>
      <stop offset="1" stop-color="#62b53b"/>
    </linearGradient>
  </defs>
  <g id="_レイヤー_1のコピー">
    <g>
      <path class="st32" d="M759.2,112.5c-.2-.4-.4-.8-.6-1.2-5.2-10.3-15.5-16.7-27-16.7s-11.5,1.7-16.5,4.9c-.2,0-.4.3-.6.4-32.3,22.4-70.9,40.3-118.1,54.9-5,1.4-9.3,4.3-12.6,8.2.5-2,.9-4,1.4-6,1.8-7.9,3.3-16.1,4.8-25,2.8-16.8-7.6-32.8-24.1-37.2h-.4c-2.4-.6-4.9-.9-7.3-.9-15.5,0-28.9,11.8-31.1,27.4v.3c-2.3,17.8-5,31.9-8.6,44.4-10.9-5.7-21-11.9-31.5-19.4-4.5-3.3-10-5.2-15.6-5.2s-.5,0-.7,0c3.2-5,5.1-10.9,5.1-17.2,0-17.5-14.2-31.7-31.7-31.7s-5.3.3-7.8.9c-5.7-5.5-13.4-8.9-21.9-8.9s-21.9,6.4-27.3,15.9h-3.4c-4.3,0-8.4,1-12,2.8-5.8-6.6-14.3-10.7-23.7-10.7s-5.3.3-7.8.9c-5.7-5.5-13.4-8.9-21.9-8.9s-18.4,4.4-24.2,11.3c-3.9-4.4-9.4-7.3-15.7-7.7-1.5,0-3,0-4.4,0-14.3,0-26.6,4.3-35.2,11.9-8.6-7.7-20.9-11.9-35.2-11.9s-3,0-4.4,0c-4.8.3-9.2,2.1-12.7,4.8-7.1-3.2-15.3-5-24.4-5s-3,0-4.4,0c-4.1.2-7.8,1.6-11,3.6-2.1-2.3-4.6-4.3-7.4-5.7s-6.2-2.5-9.8-2.8h-2.8c-.7,0-1.8,0-2.7,0h-.4c-.3,0-.7,0-1,0-1.2-1.1-2.5-2.1-3.9-3-4.8-3.2-10.5-4.8-16.5-4.8s-1.9,0-2.8,0h-.3c-6.9.7-13.2,3.9-18.1,9.1-2.9,1.5-5.6,3.6-7.8,6.1-2.5,2.9-4.4,6.3-5.6,10.2-.3,1-.6,1.9-.8,2.9-.8,1.1-1.5,2.3-2.2,3.6-1.7,3.3-2.7,6.9-3,10.9-.3,3.8.2,7.6,1.6,11.3,0,0,.2.6.3.8-.4,1.3-.6,2.5-.8,3.8-.3,1.9-.4,3.8-.2,5.7,0,2.1.6,4.2,1.2,6.4.6,2,1.5,4,2.6,5.8h0c-7.9,4.9-13.2,13.7-13.2,23.8,0,15.1,12.1,27.4,27.2,27.7v2.9c-2.3.7-4.6,1.7-6.7,3-3.6,2.1-8.2,4.1-11.5,5.3-7.6,3-13.4,9.4-15.5,17.4-1.9,7.3-.5,15.1,3.8,21.1l.5.7c6.4,10.1,16.8,15.9,28.4,15.9s.7,0,1,0v13.3c0,8.9,3.6,16.9,9.5,22.6h-.5c-17.2,0-30.2,12.9-30.2,30s.2,4.4.6,6.5c-.5,2-.8,4-.8,6.2v2c0,13.6,11.3,27.6,30.1,27.6s4.8,0,4.8,0h.4c6.9,0,13.3-2.1,18.4-6.1,5.7,3.8,12.5,6,19.8,6s8.1-.7,11.8-2c3.7,1.3,7.7,2,11.8,2s7.8-1,11.2-2.8c3.3,1.8,7.1,2.8,11.2,2.8s8.2-1.1,11.6-3c3.5,2,7.6,3.1,11.6,3.1,6.3,0,12.5-2.6,17-7.1,1.2-1.2,2.3-2.6,3.2-4.1.2.3.5.5.7.8,6.5,6.7,15.2,10.4,24.4,10.4s.4,0,.6,0c7.7,0,14.8-2.7,20.6-7.1,5,4.9,11.5,7.6,18.5,7.6s13.9-2.9,18.8-8c1.9-2,3.5-4.2,4.7-6.6,6.5,8.5,16.7,14,28.2,14s8.1-.7,11.8-2c3.7,1.3,7.7,2,11.8,2s7.8-1,11.2-2.8c3.3,1.8,7.1,2.8,11.2,2.8s8.2-1.1,11.6-3c3.5,2,7.6,3.1,11.6,3.1,6.1,0,12-2.4,16.4-6.5,5.8,4.2,12.7,6.5,19.9,6.5s.4,0,.6,0c8.2,0,15.7-3,21.6-7.8,5.1,4.8,12.4,7.9,21.3,7.9s4.8,0,4.8,0h.4c6.9,0,13.3-2.1,18.4-6.1,5.7,3.8,12.5,6,19.8,6s8.1-.7,11.8-2c3.7,1.3,7.7,2,11.8,2,6.5,0,12.4-2.6,16.7-6.8,3.7,1.9,7.9,3,12.2,3s1.2,0,1.9,0c3.8,2.5,8.2,3.9,13.1,3.9s6-.6,8.7-1.6c2.7,1.1,5.6,1.6,8.7,1.6,5.7,0,10.9-2,15-5.4,5.4,3.4,11.8,5.4,18.7,5.4s8.1-.7,11.8-2c3.7,1.3,7.7,2,11.8,2s7.5-.9,10.7-2.6c1.1,3,2.9,6.3,5.9,9.3s.4.4.6.6c7.7,7.4,16.4,7.4,19.7,7.4,15.3,0,27.8-12.5,27.8-28v-6.5c3.3-4.5,5.2-10,5.2-15.3s-2.8-13.8-7.6-18.8c-4.9-5-12-7.9-19-7.9s-1.2,0-1.8,0c-1.8-3.1-4.2-5.7-7.1-7.7,9.5-5.9,15.9-16.9,15.9-29.5v-110.1c8.9-5,17.3-10.3,25.2-16,0,0,.2-.1.2-.2,12.7-9.4,17.2-26,11-40.5h-.4ZM173,161.5v.8c0,.4,0,.9-.1,1.4h-.4c-.1-.8-.3-1.5-.5-2.3h1.1-.1ZM178.9,290.8h-1.5c-4.3,0-8.6,1.2-12.2,3.6-5.9,3.7-9.7,9.7-10.7,16.4-3.2-1.6-6.8-2.5-10.6-2.5s-1.3,0-1.9,0c-2.6-1.2-5.5-1.9-8.5-2.1,6-5.8,9.8-13.9,9.8-22.9v-13.5c4.7-.2,9.2-1.4,13.3-3.3,4.9,9.5,14.9,15.9,27.4,16.8-2.2,2.2-3.9,4.8-5.1,7.5ZM287.4,155.6h4.7c3.1,4.5,7.3,8.2,12.2,10.6-.3,1.8-.5,3.7-.5,5.6v7.4c-1.8-10.2-8.2-18.8-16.9-23.7h.5ZM303.9,191.4v26.3c-4.5,1.6-8.5,4.3-11.7,8-.6.7-1.2,1.4-1.7,2.2-1.4,0-2.7.2-4,.4-2.7-1.7-5.7-2.9-8.9-3.6v-.3c0-2-.2-3.9-.5-5.8,13.8-2.7,24.5-13.6,26.9-27.3h0ZM338,306.2c-6.9,0-13.6,2-19.2,5.7-4.2-3.4-9.5-5.2-14.9-5.2s-4.7.4-6.9,1c-2.6-1-5.3-1.5-8.2-1.5-5.8,0-11.1,2.1-15.2,5.5-4.2-3.8-9.8-6.1-15.9-6.1s-2.2,0-3.2.2c-1.4-1.1-2.9-2-4.5-2.7,5.8-5.9,10.7-12.6,14.7-19.8h6.3c1,0,2,0,3-.2,4.8,4.2,11.2,6.7,18,6.7h46.3v2.5c0,5,1.2,9.8,3.3,14.1-1.2-.2-2.4-.3-3.6-.3h0ZM578.2,183.6c.3,2,.9,3.9,1.7,5.8h0c.5,1.2,1.2,2.6,2.2,4.1-2.2-.8-4.3-1.6-6.3-2.4.8-2.5,1.6-5,2.4-7.5h0ZM451.4,305.9c-4.4-3.3-9.9-5.3-15.9-5.3s-13.4,2.6-18.4,7.5c-3.2-1.5-6.7-2.3-10.2-2.3s-.5,0-.8,0c-1.2-2.9-2.9-5.6-5.1-7.9.3-1.8.5-3.6.5-5.4v-2.5h43.6c1.4,0,2.7,0,4-.2-.3,3.1,0,6.2.7,9.3.7,2.4,1.7,4.7,3,6.8-.5,0-1,0-1.5.1h0ZM477.9,246.8c-4-14.3-17.2-24.9-32.7-24.9s-5.3.3-7.8.9c0-.9.1-1.8.1-2.8v-36.5c2.8-5,4.3-10.8,4.3-16.6s-.6-7.5-1.8-10.9c0-.1.2-.3.3-.4h3.7c1.3,0,2.5,0,3.8-.2-2.6,4.9-3.8,10.5-3.4,16.2.7,8.5,4.9,16.6,11.5,22.2,12.4,10.6,25.7,19,38.5,26.1-4.7,8.4-10.1,17.3-16.6,26.7v.2ZM675.1,313.2c-4-3-9-4.8-14.4-4.8s-1.3,0-1.9,0c-3-1.4-6.4-2.2-9.9-2.2-7.8,0-15.3,2.5-21.4,7.2-5.7-4.8-13-7.8-21-7.8s-5.9.4-8.7,1.2c-2.8-.8-5.7-1.2-8.7-1.2-7.8,0-15.2,2.8-21.1,7.8-2.6.8-5.1,2.1-7.3,3.7-4.4-5.4-11.1-8.9-18.6-8.9s-1.3,0-1.9,0c-3-1.4-6.4-2.2-9.9-2.2-7.3,0-14.2,2.2-20.1,6.3-2.3-1.9-5-3.4-8.1-4.5.6-.5,1.3-1.1,1.9-1.7l.2-.2c22-21.6,35-39,45.9-58.1,9.8,4.2,19,7.9,28.7,11.5.2,0,.4.1.5.2,3.8,1.3,7.8,2,11.9,2,13.5,0,25.6-7.3,31.6-19,0-.1,0-.3.2-.4l1.8-3.7c3.3-6.3,3.8-13.7,1.4-20.4-1.7-4.7-4.7-8.8-8.6-11.7,1.1-.1,2.3-.3,3.3-.5h.2c13.3-2.7,26.2-6,38.7-9.8v83.2c0,13.9,7.4,25.6,18.2,31-1.1.9-2.1,1.9-3,2.9h.1Z"/>
      <g>
        <path class="st6" d="M753.5,106.8c-.2-.4-.4-.8-.6-1.2-5.2-10.3-15.5-16.7-27-16.7s-11.5,1.7-16.5,4.9c-.2,0-.4.3-.6.4-32.3,22.4-70.9,40.3-118.1,54.9-5,1.4-9.3,4.3-12.6,8.2.5-2,.9-4,1.4-6,1.8-7.9,3.3-16.1,4.8-25,2.8-16.8-7.6-32.8-24.1-37.2h-.4c-2.4-.6-4.9-.9-7.3-.9-15.5,0-28.9,11.8-31.1,27.4v.3c-2.3,17.8-5,31.9-8.6,44.4-10.9-5.7-21-11.9-31.5-19.4-4.5-3.3-10-5.2-15.6-5.2s-.5,0-.7,0c3.2-5,5.1-10.9,5.1-17.2,0-17.5-14.2-31.7-31.7-31.7s-5.3.3-7.8.9c-5.7-5.5-13.4-8.9-21.9-8.9s-21.9,6.4-27.3,15.9h-3.4c-4.3,0-8.4,1-12,2.8-5.8-6.6-14.3-10.7-23.7-10.7s-5.3.3-7.8.9c-5.7-5.5-13.4-8.9-21.9-8.9s-18.4,4.4-24.2,11.3c-3.9-4.4-9.4-7.3-15.7-7.7-1.5,0-3,0-4.4,0-14.3,0-26.6,4.3-35.2,11.9-8.6-7.7-20.9-11.9-35.2-11.9s-3,0-4.4,0c-4.8.3-9.2,2.1-12.7,4.8-7.1-3.2-15.3-5-24.4-5s-3,0-4.4,0c-4.1.2-7.8,1.6-11,3.6-2.1-2.3-4.6-4.3-7.4-5.7s-6.2-2.5-9.8-2.8h-2.8c-.7,0-1.8,0-2.7,0h-.4c-.3,0-.7,0-1,0-1.2-1.1-2.5-2.1-3.9-3-4.8-3.2-10.5-4.8-16.5-4.8s-1.9,0-2.8,0h-.3c-6.9.7-13.2,3.9-18.1,9.1-2.9,1.5-5.6,3.6-7.8,6.1-2.5,2.9-4.4,6.3-5.6,10.2-.3,1-.6,1.9-.8,2.9-.8,1.1-1.5,2.3-2.2,3.6-1.7,3.3-2.7,6.9-3,10.9-.3,3.8.2,7.6,1.6,11.3,0,0,.2.6.3.8-.4,1.3-.6,2.5-.8,3.8-.3,1.9-.4,3.8-.2,5.7,0,2.1.6,4.2,1.2,6.4.6,2,1.5,4,2.6,5.8h0c-7.9,4.9-13.2,13.7-13.2,23.8,0,15.1,12.1,27.4,27.2,27.7v2.9c-2.3.7-4.6,1.7-6.7,3-3.6,2.1-8.2,4.1-11.5,5.3-7.6,3-13.4,9.4-15.5,17.4-1.9,7.3-.5,15.1,3.8,21.1l.5.7c6.4,10.1,16.8,15.9,28.4,15.9s.7,0,1,0v13.3c0,8.9,3.6,16.9,9.5,22.6h-.5c-17.2,0-30.2,12.9-30.2,30s.2,4.4.6,6.5c-.5,2-.8,4-.8,6.2v2c0,13.6,11.3,27.6,30.1,27.6s4.8,0,4.8,0h.4c6.9,0,13.3-2.1,18.4-6.1,5.7,3.8,12.5,6,19.8,6s8.1-.7,11.8-2c3.7,1.3,7.7,2,11.8,2s7.8-1,11.2-2.8c3.3,1.8,7.1,2.8,11.2,2.8s8.2-1.1,11.6-3c3.5,2,7.6,3.1,11.6,3.1,6.3,0,12.5-2.6,17-7.1,1.2-1.2,2.3-2.6,3.2-4.1.2.3.5.5.7.8,6.5,6.7,15.2,10.4,24.4,10.4s.4,0,.6,0c7.7,0,14.8-2.7,20.6-7.1,5,4.9,11.5,7.6,18.5,7.6s13.9-2.9,18.8-8c1.9-2,3.5-4.2,4.7-6.6,6.5,8.5,16.7,14,28.2,14s8.1-.7,11.8-2c3.7,1.3,7.7,2,11.8,2s7.8-1,11.2-2.8c3.3,1.8,7.1,2.8,11.2,2.8s8.2-1.1,11.6-3c3.5,2,7.6,3.1,11.6,3.1,6.1,0,12-2.4,16.4-6.5,5.8,4.2,12.7,6.5,19.9,6.5s.4,0,.6,0c8.2,0,15.7-3,21.6-7.8,5.1,4.8,12.4,7.9,21.3,7.9s4.8,0,4.8,0h.4c6.9,0,13.3-2.1,18.4-6.1,5.7,3.8,12.5,6,19.8,6s8.1-.7,11.8-2c3.7,1.3,7.7,2,11.8,2,6.5,0,12.4-2.6,16.7-6.8,3.7,1.9,7.9,3,12.2,3s1.2,0,1.9,0c3.8,2.5,8.2,3.9,13.1,3.9s6-.6,8.7-1.6c2.7,1.1,5.6,1.6,8.7,1.6,5.7,0,10.9-2,15-5.4,5.4,3.4,11.8,5.4,18.7,5.4s8.1-.7,11.8-2c3.7,1.3,7.7,2,11.8,2s7.5-.9,10.7-2.6c1.1,3,2.9,6.3,5.9,9.3s.4.4.6.6c7.7,7.4,16.4,7.4,19.7,7.4,15.3,0,27.8-12.5,27.8-28v-6.5c3.3-4.5,5.2-10,5.2-15.3s-2.8-13.8-7.6-18.8c-4.9-5-12-7.9-19-7.9s-1.2,0-1.8,0c-1.8-3.1-4.2-5.7-7.1-7.7,9.5-5.9,15.9-16.9,15.9-29.5v-110.1c8.9-5,17.3-10.3,25.2-16,0,0,.2-.1.2-.2,12.7-9.4,17.2-26,11-40.5h-.4ZM572.6,178c.3,2,.9,3.9,1.7,5.8h0c.5,1.2,1.2,2.6,2.2,4.1-2.2-.8-4.3-1.6-6.3-2.4.8-2.5,1.6-5,2.4-7.5h0ZM431.8,214.4v-36.5c2.8-5,4.3-10.8,4.3-16.6s-.6-7.5-1.8-10.9c0-.1.2-.3.3-.4h3.7c1.3,0,2.5,0,3.8-.2-2.6,4.9-3.8,10.5-3.4,16.2.7,8.5,4.9,16.6,11.5,22.2,12.4,10.6,25.7,19,38.5,26.1-4.7,8.4-10.1,17.3-16.6,26.7-4-14.3-17.2-24.9-32.7-24.9s-5.3.3-7.8.9c0-.9.1-1.8.1-2.8v.2ZM281.7,149.9h4.7c3.1,4.5,7.3,8.2,12.2,10.6-.3,1.8-.5,3.7-.5,5.6v7.4c-1.8-10.2-8.2-18.8-16.9-23.7h.5ZM298.2,185.7v26.3c-4.5,1.6-8.5,4.3-11.7,8-.6.7-1.2,1.4-1.7,2.2-1.4,0-2.7.2-4,.4-2.7-1.7-5.7-2.9-8.9-3.6v-.3c0-2-.2-3.9-.5-5.8,13.8-2.7,24.5-13.6,26.9-27.3h0ZM167.3,155.9v.8c0,.4,0,.9-.1,1.4h-.4c-.1-.8-.3-1.5-.5-2.3h1.1-.1ZM159.5,288.7c-5.9,3.7-9.7,9.7-10.7,16.4-3.2-1.6-6.8-2.5-10.6-2.5s-1.3,0-1.9,0c-2.6-1.2-5.5-1.9-8.5-2.1,6-5.8,9.8-13.9,9.8-22.9v-13.5c4.7-.2,9.2-1.4,13.3-3.3,4.9,9.5,14.9,15.9,27.4,16.8-2.2,2.2-3.9,4.8-5.1,7.5h-1.5c-4.3,0-8.6,1.2-12.2,3.6ZM313.1,306.3c-4.2-3.4-9.5-5.2-14.9-5.2s-4.7.4-6.9,1c-2.6-1-5.3-1.5-8.2-1.5-5.8,0-11.1,2.1-15.2,5.5-4.2-3.8-9.8-6.1-15.9-6.1s-2.2,0-3.2.2c-1.4-1.1-2.9-2-4.5-2.7,5.8-5.9,10.7-12.6,14.7-19.8h6.3c1,0,2,0,3-.2,4.8,4.2,11.2,6.7,18,6.7h46.3v2.5c0,5,1.2,9.8,3.3,14.1-1.2-.2-2.4-.3-3.6-.3-6.9,0-13.6,2-19.2,5.7h0ZM429.8,294.9c-6.9,0-13.4,2.6-18.4,7.5-3.2-1.5-6.7-2.3-10.2-2.3s-.5,0-.8,0c-1.2-2.9-2.9-5.6-5.1-7.9.3-1.8.5-3.6.5-5.4v-2.5h43.6c1.4,0,2.7,0,4-.2-.3,3.1,0,6.2.7,9.3.7,2.4,1.7,4.7,3,6.8-.5,0-1,0-1.5.1-4.4-3.3-9.9-5.3-15.9-5.3h0ZM669.4,307.5c-4-3-9-4.8-14.4-4.8s-1.3,0-1.9,0c-3-1.4-6.4-2.2-9.9-2.2-7.8,0-15.3,2.5-21.4,7.2-5.7-4.8-13-7.8-21-7.8s-5.9.4-8.7,1.2c-2.8-.8-5.7-1.2-8.7-1.2-7.8,0-15.2,2.8-21.1,7.8-2.6.8-5.1,2.1-7.3,3.7-4.4-5.4-11.1-8.9-18.6-8.9s-1.3,0-1.9,0c-3-1.4-6.4-2.2-9.9-2.2-7.3,0-14.2,2.2-20.1,6.3-2.3-1.9-5-3.4-8.1-4.5.6-.5,1.3-1.1,1.9-1.7l.2-.2c22-21.6,35-39,45.9-58.1,9.8,4.2,19,7.9,28.7,11.5.2,0,.4.1.5.2,3.8,1.3,7.8,2,11.9,2,13.5,0,25.6-7.3,31.6-19,0-.1,0-.3.2-.4l1.8-3.7c3.3-6.3,3.8-13.7,1.4-20.4-1.7-4.7-4.7-8.8-8.6-11.7,1.1-.1,2.3-.3,3.3-.5h.2c13.3-2.7,26.2-6,38.7-9.8v83.2c0,13.9,7.4,25.6,18.2,31-1.1.9-2.1,1.9-3,2.9h.1Z"/>
        <path class="st11" d="M703.8,390.3c-3.6,0-13.2,0-21.8-8.2-.2-.2-.4-.4-.7-.6-2.2-2.2-4-4.8-5.3-7.5-2.9,1.1-6,1.6-9.2,1.6s-8-.6-11.8-1.9c-3.8,1.2-7.8,1.9-11.8,1.9-6.5,0-12.8-1.6-18.5-4.8-4.5,3.1-9.8,4.8-15.3,4.8s-5.9-.5-8.7-1.5c-2.8,1-5.7,1.5-8.7,1.5-4.9,0-9.7-1.3-13.9-3.9-4.4.2-8.8-.7-12.8-2.4-4.8,4-10.9,6.3-17.2,6.3s-8-.6-11.8-1.9c-3.8,1.2-7.8,1.9-11.8,1.9-7,0-13.7-1.9-19.7-5.4-5.4,3.6-11.7,5.4-18.5,5.4h-5.2c-8.2,0-15.5-2.4-21.4-7.1-6.2,4.5-13.8,6.9-21.4,7h-.6c-7,0-13.8-2-19.7-5.7-4.7,3.7-10.6,5.8-16.6,5.8s-8-.9-11.6-2.7c-7.1,3.4-15.6,3.5-22.8.2-3.5,1.6-7.3,2.4-11.2,2.4s-8-.6-11.8-1.9c-3.8,1.2-7.8,1.9-11.8,1.9-10.6,0-20.5-4.3-27.8-11.9-.9,1.3-1.9,2.5-3,3.6-5.5,5.6-13.1,8.9-21,8.9s-13.5-2.4-18.8-6.8c-6,4-13,6.2-20.3,6.2h-.6c-9.2,0-17.9-3.4-24.8-9.6-.5.5-.9,1.1-1.4,1.6-5,5.1-12,8-19.1,8s-8-.9-11.6-2.7c-7.1,3.4-15.6,3.5-22.8.2-3.5,1.6-7.3,2.4-11.2,2.4s-8-.6-11.8-1.9c-3.8,1.2-7.8,1.9-11.8,1.9-7,0-13.7-1.9-19.7-5.4-5.4,3.6-11.7,5.4-18.5,5.4h-5.2c-20.7,0-33.1-15.6-33.1-30.6v-2c0-2.1.2-4.2.7-6.3-.4-2.1-.6-4.2-.6-6.4,0-16.9,11.5-30.1,27.6-32.6-4.1-5.8-6.3-12.8-6.3-20.1v-10.3c-11.8-.6-22.3-6.8-28.9-17.2l-.4-.6c-4.8-6.8-6.4-15.4-4.2-23.6,2.3-8.8,8.8-16.1,17.4-19.4,3.1-1.2,7.6-3.1,11-5.1.6-.4,1.3-.7,2-1.1-13.6-3.1-23.9-15.4-23.9-29.9s4.6-18.9,12.3-24.7c-.6-1.3-1.2-2.7-1.6-4-.8-2.3-1.2-4.7-1.4-7,0-2.1,0-4.2.2-6.4.2-1.1.4-2.2.6-3.2-1.5-4.1-2.1-8.4-1.7-12.5.3-4.4,1.4-8.3,3.3-12,.6-1.2,1.3-2.4,2-3.5.2-.9.4-1.7.7-2.6,1.3-4.3,3.4-8,6.2-11.2,2.3-2.7,5.1-4.9,8.2-6.6,5.3-5.5,12.2-8.9,19.6-9.6h.3c1,0,2-.2,3-.2,6.6,0,12.9,1.8,18.2,5.3,1.1.7,2.2,1.5,3.2,2.4h.2c1.8,0,3.5,0,5.2,0h.8c4,.4,7.6,1.4,10.9,3.1,2.4,1.2,4.6,2.8,6.6,4.6,3.2-1.7,6.7-2.6,10.3-2.9,10.6-.6,20.2.9,28.7,4.4,3.8-2.6,8.3-4.1,12.9-4.4,1.6,0,3.1,0,4.6,0,13.8,0,26.1,3.9,35.2,11,9.1-7.1,21.4-11,35.2-11s3.1,0,4.6,0c5.8.3,11.1,2.6,15.4,6.3,6.4-6.4,15.1-10,24.2-10s16.5,3,22.8,8.6c2.3-.4,4.6-.7,6.9-.7,9.2,0,18,3.7,24.4,10.1,3.6-1.4,7.4-2.2,11.3-2.2h1.8c6.3-9.8,17.3-15.9,29-15.9s16.5,3,22.8,8.6c2.3-.4,4.6-.7,6.9-.7,19.2,0,34.7,15.6,34.7,34.7s-1.1,10-3.2,14.5c4.7.7,9.3,2.6,13.1,5.5,9.4,6.7,18.4,12.3,27.8,17.4,3-11.3,5.4-24.2,7.6-40.4v-.3c2.5-17.1,17.2-30,34.1-30s5.4.3,8,1h.4c18.1,4.9,29.4,22.3,26.3,40.7-1.3,7.9-2.7,15.3-4.2,22.4,2.1-1.3,4.4-2.3,6.8-3,46.9-14.4,85.2-32.2,117.3-54.4.2-.2.4-.3.7-.5,5.4-3.5,11.7-5.4,18.1-5.4,12.6,0,24,7,29.7,18.4.2.4.4.9.6,1.4,6.8,15.8,1.8,33.9-12,44.1l-.3.2c-7.5,5.4-15.5,10.5-23.9,15.3v108.3c0,11.7-5.3,22.7-13.9,29.7,1.4,1.3,2.7,2.8,3.7,4.4h0c7.8,0,15.8,3.3,21.2,8.9,5.4,5.5,8.5,13.1,8.5,20.9s-1.8,11.4-5.2,16.3v5.5c0,17.1-13.8,31-30.8,31l.7.4ZM679.2,365.7l1.2,3.2c1.1,3.1,2.9,5.9,5.2,8.3l.5.5c6.9,6.6,14.7,6.6,17.7,6.6,13.7,0,24.8-11.2,24.8-25v-7.4l.6-.8c2.9-4,4.6-8.9,4.6-13.6s-2.5-12.3-6.8-16.7c-4.7-4.8-11.6-7.5-18.4-7h-1.9c0,.1-.9-1.5-.9-1.5-1.5-2.6-3.6-5-6.2-6.7l-3.8-2.6,3.9-2.4c8.9-5.5,14.5-15.9,14.5-27v-111.8l1.5-.9c8.8-4.9,17.1-10.3,24.9-15.8l.2-.2c11.6-8.5,15.7-23.7,10-36.9h0c-.2-.4-.3-.7-.5-1-4.6-9.3-14-15.1-24.3-15.1s-10.4,1.5-14.9,4.4c-.2,0-.3.2-.5.3-32.5,22.6-71.5,40.6-119,55.3-4.4,1.3-8.2,3.8-11.1,7.3l-6.7,8,1.7,10.3c.3,1.7.7,3.3,1.4,4.8v.3c.6,1.2,1.3,2.5,2.1,3.7l4.9,7.5-8.4-3c-2.3-.8-4.4-1.6-6.4-2.4l-2.7-1,.9-2.7c.8-2.4,1.6-4.9,2.4-7.5l3-9.8,2.6-10.8c.5-2,.9-3.9,1.4-5.9,1.7-7.8,3.3-15.9,4.8-24.8,2.5-15.3-6.9-29.9-21.9-33.8h-.3c-2.2-.6-4.4-.9-6.6-.9-14,0-26.1,10.7-28.2,24.9v.2c-2.4,18.2-5.2,32.4-8.8,44.8l-1,3.5-3.3-1.7c-10.9-5.7-21.1-11.9-31.9-19.6-4-3-8.9-4.6-13.8-4.6s-.2,0-.3,0l-6,.2,3.1-4.8c3-4.7,4.6-10,4.6-15.6,0-15.8-12.9-28.7-28.7-28.7s-4.8.3-7,.9l-1.6.4-1.2-1.2c-5.3-5.2-12.4-8-19.8-8s-19.6,5.5-24.7,14.4l-.9,1.5h-5.2c-3.8,0-7.4.8-10.7,2.5l-2,1-1.5-1.7c-5.5-6.2-13.3-9.7-21.5-9.7s-4.8.3-7,.9l-1.6.4-1.2-1.2c-5.3-5.2-12.4-8-19.8-8s-16.4,3.7-21.9,10.3l-2.2,2.7-2.3-2.6c-3.5-4-8.3-6.3-13.6-6.7-1.4,0-2.9,0-4.3,0-13.3,0-25.1,4-33.2,11.2l-2,1.8-2-1.8c-8.1-7.2-19.9-11.2-33.2-11.2s-2.8,0-4.3,0c-4,.2-7.8,1.7-11,4.2l-1.4,1.1-1.7-.8c-7.9-3.6-17.1-5.2-27.4-4.6-3.4.2-6.7,1.3-9.5,3.2l-2.2,1.4-1.7-1.9c-1.8-2.1-4-3.8-6.5-5.1-2.7-1.4-5.5-2.2-8.7-2.5h-5.4c-.3,0-.6,0-.9,0l-1.3.2-1-.9c-1.1-1-2.3-1.9-3.6-2.7-5-3.3-11.1-4.8-17.4-4.2h-.2c-6.1.6-11.8,3.5-16.2,8.2l-.4.4-.5.2c-2.6,1.4-5,3.2-6.9,5.5-2.2,2.6-3.9,5.6-5,9.1-.3.9-.5,1.7-.7,2.6v.6c0,0-.5.5-.5.5-.7,1-1.4,2.1-1.9,3.2-1.5,3-2.4,6.2-2.7,9.8-.3,3.3.2,6.7,1.4,10.1,0,0,.2.5.3.7l.4,1-.3,1c-.3,1.1-.6,2.3-.7,3.4-.3,1.8-.3,3.4-.2,5.1,0,1.9.5,3.7,1.1,5.6.6,1.8,1.4,3.6,2.3,5.2l1.5,2.5-2.5,1.6c-7.4,4.6-11.8,12.5-11.8,21.2,0,13.4,10.9,24.4,24.2,24.7h2.9v8.1l-2.1.7c-2.2.7-4.2,1.6-6,2.7-3.8,2.3-8.6,4.2-11.9,5.5-6.8,2.6-11.9,8.3-13.7,15.3-1.7,6.4-.5,13.2,3.4,18.6l.5.8c5.9,9.2,15.3,14.5,25.9,14.5s.3,0,.5,0h3.5c0-.1,0,16.3,0,16.3,0,7.8,3,15,8.6,20.5l5.2,5.1h-7.8c-15.5,0-27.2,11.6-27.2,27s.2,4,.6,5.9v.7c0,0,0,.7,0,.7-.5,1.7-.7,3.6-.7,5.4v2c0,12.1,10.2,24.6,27.1,24.6h5.2c6.2,0,11.9-1.9,16.6-5.4l1.7-1.3,1.8,1.2c5.4,3.6,11.6,5.5,18.1,5.5s7.3-.6,10.8-1.9l1-.4,1,.4c3.5,1.2,7.1,1.9,10.8,1.9s6.8-.8,9.8-2.4l1.4-.8,1.4.8c3,1.6,6.4,2.4,9.8,2.4s7.1-.9,10.1-2.6l1.5-.8,1.5.8c3.1,1.8,6.6,2.7,10.2,2.7,5.5,0,10.9-2.3,14.8-6.2,1-1.1,2-2.3,2.8-3.6l2.1-3.3,2.8,3c.2.2.4.4.6.6,6,6.1,13.9,9.5,22.2,9.5h.5c6.9,0,13.3-2.3,18.8-6.4l2.1-1.6,1.9,1.8c4.4,4.4,10.2,6.7,16.4,6.7s12.3-2.6,16.7-7.1c1.7-1.7,3.1-3.7,4.2-5.9l2.2-4.3,2.9,3.8c6.3,8.2,15.7,12.8,25.8,12.8s7.3-.6,10.8-1.9l1-.4,1,.4c3.5,1.2,7.1,1.9,10.8,1.9s6.8-.8,9.8-2.4l1.4-.8,1.4.8c3,1.6,6.4,2.4,9.8,2.4s7.1-.9,10.1-2.6l1.5-.8,1.5.8c3.1,1.8,6.6,2.7,10.2,2.7,5.3,0,10.5-2.1,14.3-5.7l1.8-1.7,2,1.5c5.3,3.9,11.6,5.9,18.2,5.9h.5c7.3,0,14.1-2.5,19.7-7.2l2-1.7,1.9,1.8c5,4.7,11.7,7.1,19.2,7.1h5.2c6.2,0,11.9-1.9,16.6-5.4l1.7-1.3,1.8,1.2c5.4,3.6,11.6,5.5,18.1,5.5s7.3-.6,10.8-1.9l1-.4,1,.4c3.5,1.2,7.1,1.9,10.8,1.9,5.5,0,10.6-2.1,14.6-6l1.6-1.5,1.9,1c3.3,1.8,7,2.6,10.8,2.6s1.1,0,1.7,0h1l.8.5c3.4,2.2,7.3,3.4,11.4,3.4s5.2-.5,7.6-1.4l1.1-.4,1.1.4c2.4,1,5,1.4,7.6,1.4,4.8,0,9.4-1.7,13.2-4.7l1.7-1.4,1.8,1.1c5.1,3.2,11.1,4.9,17.1,4.9s7.3-.6,10.8-1.9l1-.4,1,.4c3.5,1.2,7.1,1.9,10.8,1.9s6.4-.8,9.4-2.2l3-1.5-.7-.3ZM554.4,315.7l-1.8-2.3c-4-4.9-9.9-7.8-16.2-7.8s-1.1,0-1.7,0h-.8l-.7-.3c-2.7-1.2-5.6-1.9-8.6-1.9-6.6,0-13,2-18.4,5.7l-1.8,1.3-1.7-1.4c-2.1-1.7-4.6-3.1-7.2-4l-4.8-1.8,3.9-3.3c.7-.6,1.2-1.1,1.7-1.6h.1c20.1-19.9,33.7-37,45.4-57.6l1.3-2.3,2.5,1.1c9.7,4.2,18.8,7.8,28.6,11.4.2,0,.3.1.5.2,3.5,1.2,7.2,1.8,10.9,1.8,12.3,0,23.4-6.7,28.9-17.4l2-4c2.9-5.6,3.4-12.2,1.3-18.1-1.5-4.1-4.1-7.7-7.6-10.4l-5.9-4.4,7.3-.9c1.2-.2,2.2-.3,3.1-.5h.2c13.1-2.7,26.1-6,38.4-9.8l3.9-1.2v87.3c0,12.4,6.3,23.3,16.5,28.3l4.1,2-3.5,3c-1,.8-1.8,1.7-2.6,2.6l-1.8,2.2-2.3-1.7c-3.6-2.8-8-4.2-12.6-4.2s-1.1,0-1.7,0h-.8l-.7-.3c-2.7-1.2-5.6-1.9-8.7-1.9-7.2,0-14,2.3-19.6,6.6l-1.9,1.5-1.8-1.6c-5.3-4.6-12.1-7.1-19-7.1s-5.3.4-7.9,1.1l-.8.2-.8-.2c-2.6-.7-5.2-1.1-7.9-1.1-7,0-13.8,2.5-19.2,7.1l-.5.4-.6.2c-2.3.7-4.4,1.8-6.4,3.3l-2.3,1.7h0ZM536.4,299.7c7.2,0,14,2.9,19.1,8,1.7-1,3.4-1.8,5.3-2.4,6.4-5.3,14.4-8.2,22.6-8.2s5.9.4,8.7,1.1c2.8-.7,5.8-1.1,8.7-1.1,7.6,0,15,2.5,21.1,7,6.3-4.2,13.6-6.5,21.3-6.5s7.1.7,10.4,2.1c2.7-.1,5.4.1,8,.8-6.7-6.8-10.6-16.4-10.6-26.9v-79.1c-10.6,3.2-21.7,6-32.9,8.3,2.2,2.6,3.9,5.6,5.1,8.8,2.7,7.4,2.1,15.7-1.5,22.8l-1.7,3.6c0,.2-.2.3-.2.5-6.5,12.7-19.6,20.7-34.2,20.7s-8.7-.7-12.8-2.1c-.2,0-.4-.1-.6-.2-9.1-3.3-17.6-6.7-26.5-10.5-11.5,19.6-24.8,36.3-43.9,55.2,1,.5,1.9,1.1,2.8,1.7,6-3.7,12.9-5.6,20-5.6s7.1.7,10.4,2.1h1.4ZM267.8,310.1l-1.9-1.7c-3.8-3.4-8.8-5.3-13.9-5.3s-1.9,0-2.8.2l-1.2.2-1-.7c-1.2-.9-2.5-1.7-4-2.4l-3.8-1.8,2.9-3c5.6-5.8,10.4-12.2,14.2-19.1l.9-1.5h8c.9,0,1.8,0,2.7-.1h1.3c0-.1,1,.7,1,.7,4.5,3.9,10.2,6,16.1,6h49.3v5.5c0,4.4,1,8.8,3,12.8l2.6,5.2-5.7-.9c-1.1-.2-2.1-.2-3.1-.2-6.3,0-12.4,1.8-17.6,5.2l-1.8,1.2-1.7-1.3c-5.3-4.2-12.5-5.7-19-3.7l-1,.3-.9-.4c-2.3-.9-4.7-1.3-7.2-1.3-4.8,0-9.6,1.7-13.3,4.8l-2,1.7v-.4ZM298.2,298c5.3,0,10.6,1.6,15,4.6,5.5-3.2,11.7-4.9,18.1-5.1-1.1-3.3-1.7-6.8-1.7-10.3h-43.4c-6.9,0-13.6-2.3-19-6.6h-6.5c-3.3,5.7-7.2,11.1-11.6,16,.2.1.4.2.5.4,6.6-.6,13.1,1.3,18.3,5.2,4.4-3,9.7-4.7,15.2-4.7s5.6.4,8.3,1.3c2.2-.6,4.5-.9,6.8-.9h0ZM151.1,309.7l-3.7-1.8c-2.9-1.4-6-2.2-9.3-2.2s-1.1,0-1.7,0h-.8l-.7-.3c-2.3-1.1-4.9-1.7-7.5-1.8l-6.9-.4,5-4.8c5.7-5.5,8.9-12.9,8.9-20.8v-16.4h2.9c4.2-.3,8.3-1.4,12.2-3.2l2.6-1.2,1.3,2.6c4.5,8.7,13.8,14.4,25,15.1l6.5.4-4.6,4.7c-1.9,1.9-3.4,4.2-4.5,6.6l-.8,1.8h-3.4c-3.8,0-7.4,1.1-10.6,3.1h0c-5,3.2-8.5,8.5-9.4,14.4l-.6,4.1h.1ZM138.2,299.7c2.9,0,5.7.5,8.5,1.4,1.8-6.1,5.8-11.4,11.3-14.9,4-2.6,8.7-4,13.4-4,.4-.8.9-1.5,1.3-2.3-9.9-2-18.1-7.4-23.1-15.2-2.9,1.1-5.9,1.9-9,2.3v10.7c0,7.6-2.4,14.9-7,20.9,1.1.3,2.2.7,3.2,1.1h1.4ZM412,306l-1.9-.9c-3-1.4-6.3-2.1-9.6-2h-2.1l-.8-1.9c-1-2.6-2.5-4.9-4.5-6.9l-1.1-1.1.3-1.5c.3-1.7.4-3.3.4-4.9v-5.5h46.6c1.2,0,2.4,0,3.6-.2l3.7-.4-.4,3.7c-.3,2.7,0,5.5.6,8.2.6,2.1,1.4,4.1,2.6,6l2.7,4.2-5,.4c-.4,0-.9,0-1.3.1l-1.2.2-1-.7c-4.1-3.1-8.9-4.7-14-4.7s-11.9,2.3-16.3,6.6l-1.5,1.5.2-.2ZM402.4,297.1c2.9.1,5.7.7,8.4,1.8,5.3-4.5,12-7,19-7s7.9.8,11.5,2.3v-.2c-.6-2.2-.9-4.5-1-6.8h-41.5c0,1.3-.1,2.6-.3,3.9,1.6,1.8,2.9,3.8,3.9,5.9h0ZM471,248.1l-1.7-6.1c-3.7-13.3-16-22.7-29.8-22.7s-4.8.3-7.1.8l-4,.9.3-4.1c0-.8.1-1.7.1-2.5v-37.2l.4-.7c2.6-4.7,3.9-9.9,3.9-15.1s-.5-6.7-1.6-9.9l-.5-1.5,2.1-2.9h5.3c1.1,0,2.2,0,3.4-.2l5.8-.7-2.8,5.1c-2.4,4.4-3.4,9.4-3,14.6.6,7.7,4.4,15.1,10.5,20.2,10.7,9.1,22.7,17.3,38,25.7l2.6,1.5-1.5,2.6c-5.2,9.5-10.7,18.3-16.7,26.9l-3.6,5.2h0ZM439.5,213.3c14.5,0,27.5,8.5,33.5,21.4,4.1-6.2,8-12.4,11.7-19-14.4-8.1-26-16.1-36.4-24.9-5.4-4.5-9.3-10.6-11.3-17.2-.6,1.8-1.4,3.5-2.3,5.2v34.9c1.5-.2,3.1-.3,4.7-.3h0ZM280.2,225.8l-1-.6c-2.5-1.5-5.2-2.6-8-3.2l-2.4-.5v-2.7c0-1.8-.1-3.6-.5-5.3l-.5-2.9,2.9-.6c12.6-2.5,22.3-12.3,24.6-24.9l6,.5v28.4l-2,.7c-4,1.4-7.6,3.9-10.4,7.2-.5.6-1.1,1.3-1.6,2l-.9,1.2h-1.5c-1.2,0-2.4.2-3.5.4l-1.1.2h-.1ZM274.7,216.7c2.3.7,4.5,1.6,6.6,2.8.6,0,1.2-.2,1.8-.2.3-.4.7-.8,1-1.3,3-3.5,6.8-6.3,11-8.1v-9.3c-4.8,7-12,12.2-20.6,14.6,0,.5,0,1,.1,1.5h.1ZM295.2,174.1c-1.6-9.1-7.2-17-15.4-21.6l-10.3-5.8,12.2.2h6.3l.9,1.3c2.8,4.1,6.6,7.4,11.1,9.6l2,1-.4,2.2c-.3,1.7-.4,3.4-.4,5.1v7.4l-6,.5h0ZM169.9,161.1h-5.7l-.4-2.5c-.1-.7-.3-1.4-.4-2.1l-1-4.1,4.2.4h1l3.1.2-.4,3.3v.5c0,.4,0,.9-.1,1.4l-.2,2.7v.2Z"/>
      </g>
    </g>
  </g>
  <g id="_レイヤー_11" data-name="_レイヤー_1">
    <g>
      <path class="st14" d="M88.2,353.7c-.2,0-.3,0-.5,0h-4.7c-9.1,0-11.1-6.2-11.1-8.6v-1.9c0-2.3,1.5-4.2,3.6-4.7-2.6-2.2-3.3-5.3-3.3-8.1,0-6.7,4.4-11.1,11.2-11.1h3.4c8.9,0,10.9,6.2,10.9,8.6s-1.8,4.5-4.1,4.9h-.3s-.3,0-.3,0c0,0-.2,0-.3,0,5,2,6.3,6.2,6.3,9.8s-.1,6.2-2.8,7.8h0c-1.9,2-4.7,3.2-7.9,3.2ZM81.7,343.8c.3,0,.7.1,1.4.1h4.8c.7,0,1.2-.1,1.4-.3,0,0,.1-.3.1-1s-2.4-1.2-3.7-1.2-3.2-.1-4.5-.4c.3.7.5,1.4.5,2.2v.6ZM81.7,331.2c.2.1,1.2.5,3.8.5s3.6.2,5.1.5c-1.1-.6-1.9-1.6-2.2-2.8-.3-.1-.8-.2-1.7-.2h-3.4c-1,0-1.3.2-1.4.2,0,0-.1.3-.1,1.1s0,.6,0,.7Z"/>
      <path class="st8" d="M150,353.6c-4.5,0-8.7-1.9-11.8-5-3.1,3.1-7.3,5-11.8,5-7.5,0-16.7-7.8-16.7-17s1.7-8.9,4.9-12c3.1-3.2,7.2-5,11.8-5s4.9,2.2,4.9,4.9-2.2,4.9-4.9,4.9-3.6.7-5,2.1c-1.3,1.4-2,3.1-1.9,5h0c0,4.1,3.1,7.3,6.9,7.3s6.9-3.2,6.9-7.2v-10c0-2.7,2.2-4.9,4.9-4.9s4.9,2.2,4.9,4.9v10c0,4,3.1,7.2,6.9,7.2s6,0,6.6,3.2c.2,1.1.1,3-2.4,4.2-.9,1.4-2.4,2.3-4.1,2.3Z"/>
      <path class="st21" d="M195.6,353.7c-1.3,0-2.6-.6-3.5-1.5l-8.9-8.9c-1,.5-2.1.8-3.3.8s-1.8-.2-2.6-.5v5.1c0,2.7-2.1,4.9-4.9,4.9s-4.9-2.1-4.9-4.9v-39.8c0-1.6.8-3.2,2.1-4.1l.9-.6h3.5l.9.6c1.4.9,2.2,2.5,2.2,4.1v20.7c.8-.3,1.7-.5,2.6-.5s2.2.2,3.2.7l7.7-8h0s1.1-1.2,1.1-1.2c.9-.9,2.2-1.5,3.5-1.5s2.5.5,3.5,1.5c.9.9,1.4,2.1,1.4,3.4s0,2.1-1.4,3.5c-.7.7-5.4,5.7-8.6,9,1.1,1.1,2.4,2.4,3.7,3.7,2.7,2.7,4.2,4.3,5.1,5.3h0c.7.7,1.5,2,1.5,3.5s-.5,2.5-1.5,3.4c-.9.9-2.2,1.5-3.4,1.5Z"/>
      <path class="st20" d="M241.2,353.7c-4.3,0-8.2-1.6-11.1-4.6-2.9-2.9-4.5-6.9-4.5-11.2v-8.8h-.6c-2.7,0-4.9-2.2-4.9-4.9s2.2-4.9,4.9-4.9h1c.3-1,.8-1.9,1.5-2.7h0c0-.1.1-.2.1-.2,0,0,.2-.2.3-.3l-1-2.1h6c4.1,0,7.4,3.4,7.4,7.5s-.5,3.9-2,5.2c0,0,0,0-.1.1-.8.8-1.8,1.4-2.8,1.8v9.1c0,1.2.3,3,1.7,4.4.8.9,2.1,1.8,3.9,1.8h.3c3.3,0,5.9-2.8,5.9-6.1v-13.7c0-2.7,2.2-4.9,4.9-4.9s4.9,2.2,4.9,4.9v13.7c0,8.8-7,16-15.7,16Z"/>
      <path class="st1" d="M280.5,354.1c-2,0-3.9-.8-5.3-2.2-1.3-1.3-2.1-3.2-2.1-5.2s.8-4,2.1-5.3l2.9-2.9v-14c0-2.7,2.1-4.9,4.9-4.9h.1c2.7,0,4.9,2.2,4.9,4.9v4l6.8-7c1-1,2.2-1.5,3.5-1.5s2.5.5,3.4,1.5c.8.8,1.4,1.9,1.4,3.1,0,1.4-.5,2.8-1.4,3.8l-13.7,14v4.3c0,2-.8,3.8-2.2,5.2-1.4,1.4-3.3,2.2-5.2,2.2Z"/>
      <path class="st3" d="M355.9,353.6c-4.5,0-8.7-1.9-11.8-5-3.1,3.1-7.3,5-11.8,5-7.5,0-16.7-7.8-16.7-17s1.7-8.9,4.9-12c3.1-3.2,7.2-5,11.8-5s4.9,2.2,4.9,4.9-2.2,4.9-4.9,4.9-3.6.7-5,2.1c-1.3,1.4-2,3.1-1.9,5h0c0,4.1,3.1,7.3,6.9,7.3s6.9-3.2,6.9-7.2v-10c0-2.7,2.2-4.9,4.9-4.9s4.9,2.2,4.9,4.9v10c0,4,3.1,7.2,6.9,7.2s6,0,6.6,3.2c.2,1.1.1,3-2.4,4.2-.9,1.4-2.4,2.3-4.1,2.3Z"/>
      <path class="st31" d="M401.5,353.7c-1.3,0-2.6-.6-3.5-1.5l-8.9-8.9c-1,.5-2.1.8-3.3.8s-1.8-.2-2.6-.5v5.1c0,2.7-2.1,4.9-4.9,4.9s-4.9-2.1-4.9-4.9v-39.8c0-1.6.8-3.2,2.1-4.1l.9-.6h3.5l.9.6c1.4.9,2.2,2.5,2.2,4.1v20.7c.8-.3,1.7-.5,2.6-.5s2.2.2,3.2.7l7.7-8h0s1.1-1.2,1.1-1.2c.9-.9,2.2-1.5,3.5-1.5s2.7.6,3.6,1.6c.8.9,1.2,2,1.2,3.2s0,2.1-1.4,3.5c-.7.7-5.4,5.7-8.6,9,3.4,3.5,8.8,8.9,8.8,8.9.7.7,1.5,2,1.5,3.5s-.5,2.5-1.5,3.4c-.9.9-2.2,1.5-3.4,1.5Z"/>
      <path class="st16" d="M438.1,353.7c-4.3,0-8.2-1.6-11.1-4.6-2.9-2.9-4.5-6.9-4.5-11.2v-8.8h-.6c-2.7,0-4.9-2.2-4.9-4.9s2.1-4.9,4.9-4.9h1c.3-1,.8-1.9,1.5-2.7h0c0-.1,0-.2,0-.2,0,0,.2-.2.3-.3l-1.1-2.1h6c4.1,0,7.4,3.4,7.4,7.5s-.5,3.9-2,5.2c0,0,0,0-.1.1-.8.8-1.8,1.4-2.8,1.8v9.1c0,1.2.3,3,1.7,4.4.8.9,2.1,1.8,3.9,1.8h.3c3.3,0,5.9-2.8,5.9-6.1v-13.7c0-2.7,2.2-4.9,4.9-4.9s4.9,2.2,4.9,4.9v13.7c0,8.8-7,16-15.7,16Z"/>
      <path class="st33" d="M486.3,353.7c-.2,0-.3,0-.5,0h-4.7c-9.1,0-11.1-6.2-11.1-8.6v-1.9c0-2.3,1.5-4.2,3.6-4.7-2.6-2.2-3.3-5.3-3.3-8.1,0-9.8,6-11.1,11.2-11.1h3.4c9,0,11,6.2,11,8.6s-1.8,4.5-4.1,4.9c-.2,0-.5,0-.7,0s-.1,0-.2,0c5,2,6.2,6.2,6.2,9.8s-.1,6.2-2.8,7.8h0c-1.9,2-4.7,3.2-7.9,3.2ZM479.8,343.8c.3,0,.7.1,1.4.1h4.8c.7,0,1.2-.1,1.4-.3,0,0,.1-.3.1-1s-2.4-1.2-3.7-1.2-3.2-.1-4.6-.4c.4.7.6,1.4.6,2.2v.6ZM479.8,331.3c.4.1,1.3.4,3.8.4s3.6.2,5.1.5c-1-.6-1.8-1.6-2.2-2.8-.3-.1-.8-.2-1.7-.2h-3.4c-1,0-1.3.2-1.4.2,0,0-.1.3-.1,1.1s0,.7,0,.8Z"/>
      <path class="st27" d="M548.2,353.6c-4.5,0-8.7-1.9-11.8-5-3.1,3.1-7.3,5-11.8,5-7.5,0-16.7-7.8-16.7-17s1.7-8.9,4.9-12c3.1-3.2,7.2-5,11.8-5s4.9,2.2,4.9,4.9-2.2,4.9-4.9,4.9-3.6.7-5,2.1c-1.3,1.4-2,3.1-1.9,5h0c0,4.1,3.1,7.3,6.9,7.3s6.9-3.2,6.9-7.2v-10c0-2.7,2.2-4.9,4.9-4.9s4.9,2.2,4.9,4.9v10c0,4,3.1,7.2,6.9,7.2s6,0,6.6,3.2c.2,1.1.1,3-2.4,4.2-.9,1.4-2.4,2.3-4.1,2.3Z"/>
      <path class="st9" d="M609.4,353.6c-2.7,0-4.9-2.1-4.9-4.9v-15.8c0-2.2-1.8-4.1-3.8-4.1s-1.6,0-1.8.1c0,0-.1.1-.2.2-.2.3-.5.6-.8.9-.7.8-1.1,1.8-1.2,2.9v15.8c0,2.7-2.1,4.9-4.9,4.9s-4.9-2.1-4.9-4.9v-15.9c0-2.2-1.7-3.9-3.8-3.9s-1.5,0-1.7,0c0,0,0,0-.1.1-.2.3-.5.6-.8.9h0c0,0,0,.2,0,.2-.7.7-1.1,1.7-1.1,2.7v1.2l3,3h0c1.2,1.5,1.9,3.4,1.9,5.1s-.7,3.7-1.9,5.1h0c0,.1,0,.2,0,.2-.9,1-2.6,2.1-5.3,2.1s-3.8-.7-5.2-2.1-2.2-3.3-2.2-5.3v-4.2l-3.8-3.9c-1.9-1.9-1.9-5.1,0-7h.1c0-.1.2-.3.2-.3.9-.7,2-1.1,3.1-1.1s1.4.2,2,.4c.6-1.2,1.4-2.2,2.3-3.2,2.8-2.7,6.2-4.1,9.6-4.1s5.9,1.2,8.6,3.4c2.6-2.2,5.7-3.4,8.8-3.4h1.1l.4.3c6.9.6,12.3,6.6,12.3,13.8v15.8c0,2.7-2.1,4.9-4.9,4.9Z"/>
      <path class="st15" d="M666.8,353.6c-4.5,0-8.7-1.9-11.8-5-3.1,3.1-7.3,5-11.8,5-7.5,0-16.7-7.8-16.7-17s1.7-8.9,4.9-12c3.1-3.2,7.2-5,11.8-5s4.9,2.2,4.9,4.9-2.2,4.9-4.9,4.9-3.6.7-5,2.1c-1.3,1.4-2,3.1-1.9,5h0c0,4.1,3.1,7.3,6.9,7.3s6.9-3.2,6.9-7.2v-10c0-2.7,2.2-4.9,4.9-4.9s4.9,2.2,4.9,4.9v10c0,4,3.1,7.2,6.9,7.2s6,0,6.6,3.2c.2,1.1.1,3-2.4,4.2-.9,1.4-2.4,2.3-4.1,2.3Z"/>
      <path class="st2" d="M703.7,368.2c-3.4,0-4.4,0-6.6-2.1h-.1c-2.3-2.4-2.3-4.9-2.3-6.9v-.6c0-3.6,2.6-4.9,4.9-4.9s2.2.3,3.1,1v-3.3c-1,.2-2.1.3-3.2.3-4.2,0-8.7-2-11.8-5.2-3.3-3.3-5.1-7.3-5.1-11.3v-12.4c0-2.6,2.2-4.8,4.9-4.8h.9l.4.2c2,.4,3.7,1.9,3.7,4.7v12.4c0,1.3.8,3.1,2,4l.4.3.3.4c.9,1.3,2.6,2,4.4,2s2.3-.3,3.2-1v-3.6c0-1.9.8-3.8,2.1-5.4,1.1-1.3,3.3-2.4,5.1-2.4s4.3,1.1,5.4,2.2c1.4,1.4,2.3,3.6,2.3,5.6s-1.3,4.2-2.3,5.1l-2.9,2.9v13.8c0,5-3.9,9-8.9,9Z"/>
    </g>
    <path class="st12" d="M685.6,176c4.8,0,8.8,4.1,8.8,8.8v91.3c0,5-4.1,8.8-8.8,8.8s-8.8-3.9-8.8-8.8v-91.3c0-4.8,3.8-8.8,8.8-8.8Z"/>
    <path class="st13" d="M721.8,112.8c3.8-2.5,8.8-1.1,10.9,2.9,2,4.8.7,10.2-3.6,13.4-32.8,23.6-73.1,39.9-118.1,48.9-4.8.9-14.3,1.4-15.8-3.2-.7-1.6.2-3.6,2-4.1,56.8-17.4,96-38.1,124.7-58h-.1Z"/>
    <path class="st37" d="M543.9,118.7c.7-5.1,5.6-9,10.6-7.8,5.3,1.4,8.5,6.2,7.6,11.6-1.4,8.4-2.9,16.3-4.6,23.8-4.2,18.8-9.2,34.8-15.7,50.1-.3.6,0,1.4.6,1.5,18.4,9.1,31.5,13.4,54.9,20.5,1.8.7,2.6,2.6,1.6,4.3l-2,4c-2.9,5.7-9.8,8-16,5.9-16.6-6.1-30.7-12.2-45.7-19.2-.6-.3-1.2-.1-1.5.6-11.9,23.8-24,43.5-51.2,70.2-3.7,3.6-10.3,6.3-15.2,4.5-1.5-.5-1.9-2.5-.8-3.8,24.7-28.4,39.2-53,52.1-79.2.3-.6,0-1.2-.4-1.5-19.5-9.8-37.3-19.5-53.4-33.3-3.6-3-4.8-8.3-2.1-11.4,1.2-1.5,3.5-1.9,5-.6,19.7,14,36.9,23.2,56.8,31.7.6.3,1.2.1,1.5-.4,9.5-22.2,14.3-44.6,17.8-71.6h.1Z"/>
    <path class="st36" d="M364.1,231.5c5,0,9.1,4.1,9.1,9.1v9.7c0,.7.5,1.1,1.1,1.1h1.6c-1.2-1.2-1.9-2.4-1.2-3.3,2.6-1,6.8,1.5,9.3,2.9,0-1.4.9-3.7,2.8-3.8,1.4-.3,3.3.5,4.6,1.7-2.4-11.7,9.6-11.8,15-1.6,4.1-5.9,11.4-7.5,11.4.5,6.9-6.1,9.8-1.1,9.5,3.6.5,0,.9-.5.9-1.1,0-6.1,5-11.3,11.3-11.3s11.3,5.2,11.3,11.3-5.2,11.3-11.3,11.3h-65.2c-.7,0-1.1.7-1.1,1.1v24c0,3.7-2.2,6.7-5.3,8.1h-7.4c-3.1-1.4-5.1-4.4-5.1-8.1v-24c0-.5-.7-1.1-1.1-1.1h-67.9c-2.7,0-5-2-5-5s2.3-5,5-5h.2c-2.1-2.3-3.6-4.7-2.5-6.4,2.8-1.4,7.4,2.2,10.1,4.2,0-2.1.9-5.3,3-5.6,1.5-.5,3.6.8,4.9,2.5-2.6-17.1,10.3-17.3,16.2-2.3,4.4-8.6,12.3-11,12.3.8,8-9.7,11.1-.4,10.1,6.9h1.4c9.1-9.2,17.7-8.5,9.8,0h2.4c.5,0,1.1-.5,1.1-1.1v-10c0-5,3.8-9.1,8.8-9.1h0Z"/>
    <path class="st0" d="M408.7,101.4c5,0,8.8,4.1,8.8,8.8v5.9c0,.7.5,1.1,1.1,1.1h9.5c.7,0,1.1-.5,1.4-.9.9-4.1,4.5-7,8.8-7s9.1,3.9,9.1,9.1-4.1,9.1-9.1,9.1-14.5-.2-19.7-.2-1.1.7-1.1,1.1v3.9c0,4.8-3.8,8.8-8.8,8.8s-8.8-4.1-8.8-8.8v-3.9c0-.5-.5-1.1-1.1-1.1h-20.8c-2.7,0-5-2-5-5s2.3-5,5-5h20.8c.7,0,1.1-.5,1.1-1.1v-5.9c0-4.8,4.1-8.8,8.8-8.8h0Z"/>
    <path class="st38" d="M312.5,101.4c5,0,8.8,4.1,8.8,8.8v5.9c0,.7.5,1.1,1.1,1.1h9.5c.7,0,1.1-.5,1.4-.9.9-4.1,4.5-7,8.8-7s9.1,3.9,9.1,9.1-4.1,9.1-9.1,9.1-14.5-.2-19.7-.2-1.1.7-1.1,1.1v3.9c0,4.8-3.8,8.8-8.8,8.8s-8.8-4.1-8.8-8.8v-3.9c0-.5-.5-1.1-1.1-1.1h-20.8c-2.7,0-5-2-5-5s2.3-5,5-5h20.8c.7,0,1.1-.5,1.1-1.1v-5.9c0-4.8,4.1-8.8,8.8-8.8h0Z"/>
    <path class="st28" d="M402.1,150.1c6.3,0,11.3,5.2,11.3,11.3s-1.4,6.1-3.4,8.2c-.7.5-.9,1.1-.9,1.8v43c0,6.3-5,11.3-11.3,11.3h-65.6c-6.1,0-11.3-5-11.3-11.3v-48.3c0-6.1,5-11.3,11.3-11.3h59.5c.7,0,1.4-.2,1.8-.7,2.3-2.5,5.2-4.1,8.6-4.1h0ZM339.9,165c-.7,0-1.1.7-1.1,1.1v48.3c0,.7.5,1.1,1.1,1.1h50.2c.7,0,1.1-.5,1.1-1.1v-20.8c0-.5-.5-1.1-1.1-1.1h-33c-2.7,0-5-2-5-4.8s2.3-5,5-5l33-.2c.7,0,1.1-.5,1.1-1.1v-15.2c0-.5-.5-1.1-1.1-1.1h-50.2Z"/>
    <path class="st35" d="M189.8,158.3c.5-4.8,4.8-8.4,9.7-7.9,5,.5,8.6,5,8.1,9.7-.5,5.9-1.8,14.5-2.3,19.5-.2.5.2,1.1.9,1.1h46.2c.5,0,.9-.7.9-1.1,0-6.3,5.2-11.3,11.3-11.3s11.3,5,11.3,11.3-5.7,11.1-11.1,11.3h-60.4c-.7,0-1.1.5-1.4,1.1-2.3,15.6-5.4,34-9.3,47.8,0,.5.5,1.1.9,1.1h33.3c.7,0,1.4-.5,1.4-1.1,1.4-6.6,1.8-13.8,2-21.5,0-4.8,4.1-8.6,8.8-8.6,5,.2,8.8,4.1,8.8,9.1,0,7.7-.5,14.7-1.6,21.1,0,.5.5,1.1.9,1.1h16.7c3.8,0,7,2.7,7,6.6s-3.2,7.5-7,7.5h-19.9c-.7,0-1.1.5-1.4.9-5.9,16.8-17.7,30.8-35.5,40.3-4.1,2.3-10.2,3.6-13.8.5-1.4-1.1-.9-2.7.5-3.6,13.1-9.7,25.3-21.7,29.9-37.1.2-.5,0-.9-.7-.9h-43c-5.7,0-10.9-2.3-10.9-7.9s2.7-6.1,4.5-6.1.5-.2.5-.5c3.8-13.4,7-31.7,9.5-48.5.2-.7-.2-1.1-.9-1.1h-31c-2.9,0-5.2-2.3-5.2-5.2s2.3-5,5.2-5h33c.7,0,1.1-.5,1.4-1.1.7-5.7,2-15,2.5-21.3l.2-.2Z"/>
    <path class="st25" d="M133.3,152.9c-6.1,0-11.3,5-11.3,11.3s-.5,1.1-1.1,1.1h-4.8c-.7,0-1.1-.5-1.1-1.1v-12c.5-.3.9-.6,1.3-1,1.1-1.2,2.5-1.7,4-.9,3.3,1.5,8.2,1.5,9.5-2.3.6-1.2,0-2.9.8-4,.5-.6,1.8-.8,2.7-1,2.3-.7,4-1.9,4-4.4-.2-5.1-4.7-9-8.6-11.5-.3-.2-.8-.6-.8-.9s.5-.7.8-.9c1.7-.9,3.8-2.1,5.1-3.9,1.7-2.2.4-4.9-2-5.9-1.6-.8-.1-2.4.1-3.6.6-2.1,0-4.5-1.5-5.7-1.1-.9-2.8-.9-3.9-1.8-1.1-1-.9-2.9-1.9-4-.6-.7-1.6-1.2-2.5-1.3-4.2-.6-8.2,1.3-11.7,4.1-.6.4-1.5.9-2.1.7-.9-.3-1.3-1.7-1.7-2.9-.6-1.7-1.3-3.5-2.3-5-2.4-4.1-8.9-6.5-12.8-2.7-1.2,1-1.9,2.6-2.9,3.6-1,.9-2.4.8-3.5,1.5-2.8,1.5-3.2,5.1-3,8,0,1.4-1.1,2.3-2.1,3-2.3,1.8-3.2,5.5-1.7,8.1,1.5,2.7,5.1,4,8.1,5.1,1,.3,1.7.8.3,1.4-1.4.7-3.2,1.4-4.5,2.3-4.2,2.6-5.3,8.6-.8,11.1.9.6,1.4,1.1,1.2,2.2-.7,2.6-.6,6,2.1,7.1.8.4,2,.4,2.6,1,.4.3.6.9.8,1.3.7,2.4,2.5,4.6,5.1,4.6h.2c1.4,0,2.7-.5,3.9-1.2v11.5c0,.7-.7,1.1-1.1,1.1h-21c-2.7,0-5,2.3-5,5.2s2.3,5,5,5h21c.5,0,1.1.5,1.1,1.1v101c0,5,3.8,9.1,8.8,9.1s9.1-4.1,9.1-9.1v-101c0-.7.5-1.1,1.1-1.1h17.4c6.8.2,11.1-6.1,11.1-11.3s-4.3-11.3-11.3-11.3l-.2.3ZM89.3,146.7h0c-.4-2-2.6-1.1-3.9-1.7-2-.9-1.5-3.6-.8-5.3.6-1.4.2-2.6-1.2-3.2-3-1.1-4.2-4.1-2.1-6.7,2.5-3.2,7.3-3.8,10.5-6.1,1.7-1.8-1.6-2.1-2.8-2.3-3.2-.8-7.6-2-9.2-4.9-1.1-1.9-.2-4.4,1.5-5.7,1.1-.8,2.8-1.5,2.7-3.1-.2-2.1-.6-4.5.7-6.4.8-1.3,2.3-1.4,3.7-1.5,1.1,0,1.7-1,2.2-1.9,2.2-5.5,8.2-5.6,11.5-1.2,2.3,3.5,3.6,7.8,4.1,12,0,.4,0,1.1.5,1.2.2,0,.4,0,.7-.4,1-1.2,1.9-2.5,3-3.5,3.4-4.2,16.5-9.1,12.3.9-.6,1.3,0,1.5,1.2,1,1.7-.6,3.9-1.1,5.4.2,1.7,1.6.7,4.3-.6,5.8-.5.7-1.8,1.4-1.9,2.2,0,.3.4.5,1.1.6,1.3.3,3,.4,4,1.4.6.6.7,1.5.3,2.2-1.6,2.4-4.8,3.5-7.2,4.5-.7.4-1.9.4-2.3,1.2,0,.2,0,.3.4.5,1.1.6,2.4,1.1,3.5,1.8,2.5,1.5,5.1,3.3,7,5.9,2.2,3.2,3,6.6-1.9,7.4-.8.2-1.6.2-2.4,0-1-.3-2-1.1-2.2-.9-.3.8.9,2.9,1,3.8,1.2,4.7-3,6-7,4.1-1.3-.5-2.5-1.5-3.2-2.6-.2-.3-.4-.5-.6-.5-.3,0-.5.4-.7,1.2-.2,1.1-.7,2.2-1.4,3v-14.6c0-5-4.1-9.1-9.1-9.1s-8.8,4.1-8.8,9.1v15.3c-3.3,2.2-7,2.4-7.7-3.6h-.3Z"/>
    <path class="st23" d="M123.5,223.6c2.7-2.7,7.5-2.7,10.6-.5,3.2,2.5,7.2,4.8,11.5,7.2,1.8,1.1,2.3,3.2,1.1,4.8l-.9,1.4c-4.1,5.7-12,6.8-17.4,2.5-1.6-1.6-3.2-3.2-5-5.2-2.7-2.7-2.9-7.5,0-10.2h0Z"/>
    <path class="st26" d="M79.4,223.6c3.4-2,8.1-1.8,10.4.9,2.5,2.9,2,7.2-1.4,10.2-2.5,1.8-4.8,3.4-7.2,4.8-5.2,3.2-12.7,4.1-17.2-3.2l-.9-1.4c-1.1-1.4-.5-3.6,1.4-4.3,5.2-2,10.4-4.3,14.9-7Z"/>
    <path class="st30" d="M245,129.2c-6.5-13,4.3-25.4,26.4-24.1,1.3,22.2-11.4,33-24.4,26.2-.8,1.3-1.4,2.4-1.8,3.2-.7,1.3-2.1,2.3-3.2,2.9-.8.4-1.6.6-1.8.7h-.5l-.3-.2-.3-.2-.2-.3-.2-.3v-.7c.1-.6.7-1.1,1.3-1.1.7-.2,2.3-1,2.9-2.2.5-.9,1.3-2.3,2.2-3.9h0ZM241.1,136.3v.6-.6Z"/>
    <path class="st18" d="M194.7,105.1c22.1-1.3,32.9,11.2,26.4,24.1,1,1.7,1.8,3,2.2,3.9.6,1.2,2.2,1.9,2.9,2.2.6,0,1.2.4,1.3,1.1v.7l-.2.3-.2.3-.3.2h-.3c0,.1-.5.2-.5.2-.3,0-1-.2-1.8-.7-1.1-.6-2.5-1.6-3.2-2.9-.4-.7-1-1.8-1.8-3.2-13.1,6.8-25.7-4-24.4-26.2h0ZM224.9,136.3v.6-.6Z"/>
    <path class="st5" d="M153.2,105.1c22.1-1.3,32.9,11.2,26.3,24.1,1,1.7,1.8,3,2.3,3.9.6,1.2,2.2,1.9,2.9,2.2.6,0,1.2.4,1.3,1.1v.7l-.2.3-.2.3-.3.2h-.3c0,.1-.5.2-.5.2-.3,0-1-.2-1.8-.7-1.1-.6-2.5-1.6-3.2-2.9-.4-.7-1-1.8-1.8-3.2-13.1,6.8-25.7-4-24.4-26.2h-.1ZM183.3,136.3v.4-.4Z"/>
    <path class="st7" d="M406.4,153.8c1.5-.3,3,.7,3.4,2.2.3,1.5-.7,3-2.2,3.4-1.5.3-3-.7-3.4-2.2-.3-1.5.7-3,2.2-3.4Z"/>
    <path class="st7" d="M409.5,159.7c.6-.1,1.1.2,1.2.8s-.2,1.1-.8,1.2c-.6.1-1.1-.2-1.2-.8s.2-1.1.8-1.2Z"/>
    <path class="st7" d="M441.9,242.2c1.4-.8,3.1-.3,3.9,1,.8,1.4.3,3.1-1,3.9-1.4.8-3.1.3-3.9-1s-.3-3.1,1-3.9Z"/>
    <path class="st7" d="M446.6,246.8c.5-.3,1.1-.1,1.4.4s.1,1.1-.4,1.4c-.5.3-1.1.1-1.4-.4s-.1-1.1.4-1.4Z"/>
    <path class="st7" d="M132.9,155.4c1.1-1.1,2.9-1.1,4,0s1.1,2.9,0,4-2.9,1.1-4,0-1.1-2.9,0-4Z"/>
    <path class="st7" d="M138.6,158.6c.4-.4,1.1-.4,1.5,0s.4,1.1,0,1.5-1.1.4-1.5,0-.4-1.1,0-1.5Z"/>
    <path class="st7" d="M267.2,171.3c1.4-.8,3.1-.3,3.9,1,.8,1.4.3,3.1-1,3.9-1.4.8-3.1.3-3.9-1-.8-1.4-.3-3.1,1-3.9Z"/>
    <path class="st7" d="M272,175.9c.5-.3,1.1-.1,1.4.4s.1,1.1-.4,1.4c-.5.3-1.1.1-1.4-.4s-.1-1.1.4-1.4Z"/>
    <path class="st7" d="M440.7,112.1c1.1-.6,2.5-.3,3.2.9.6,1.1.3,2.5-.9,3.2-1.1.6-2.5.3-3.2-.9-.6-1.1-.3-2.5.9-3.2Z"/>
    <path class="st7" d="M444.6,115.9c.4-.2.9,0,1.2.3.2.4,0,.9-.3,1.2-.4.2-.9,0-1.2-.3-.2-.4,0-.9.3-1.2Z"/>
    <path class="st7" d="M344.3,112.1c1.1-.6,2.5-.3,3.2.9.6,1.1.3,2.5-.9,3.2-1.1.6-2.5.3-3.2-.9-.6-1.1-.3-2.5.9-3.2Z"/>
    <path class="st7" d="M348.2,115.9c.4-.2.9,0,1.2.3.2.4,0,.9-.3,1.2-.4.2-.9,0-1.2-.3-.2-.4,0-.9.3-1.2Z"/>
    <path class="st7" d="M135,134.8c-.1-.2-.2-.3-.3-.5-1.9-3.2-5.2-5.3-8-7.1-.7-.4-1.5-.8-2.4-1.2,1.2-.4,2.4-.9,3.6-1.5,1.8-.9,3.9-2,5.2-3.9.3-.4.4-1,.4-1.6s-.1-.8-.3-1.1c-.1-.2-.3-.4-.5-.6s-.5-.4-.8-.5c-.3-.2-.6-.3-.9-.4-.4,0-.7-.2-1-.3-.7,0-1.3-.3-2-.4.6-.4,1-.9,1.5-1.4.6-.7,1-1.5,1.3-2.4.3-.8.3-1.7.2-2.7,0-.5-.2-.9-.4-1.3-.2-.3-.4-.6-.7-.8-.6-.5-1.4-.8-2.4-.9-.8,0-1.6,0-2.6.2-.4,0-.8.2-1.3.4.3-.7.6-1.4.7-2.1,0-.5.2-1,.2-1.6s0-1-.2-1.5c0,0,0-.2-.2-.4-.2-.4-.6-.7-1-.9-.4-.2-.9-.3-1.6-.4h-1.7c-.5,0-1.1,0-1.7.3-3.6.8-7,3.1-9.7,6.3-.4.5-.8,1-1.2,1.6,0-1.5-.5-3-1-4.8-.4-1.2-.8-2.4-1.2-3.4-.4-1.1-.9-2.3-1.6-3.4v-.2c-.8-1.1-1.8-2.1-3.2-3-1.7-1.1-3.8-1.1-4.9-1-1.9.2-3.5,1.4-4.8,3.5-.5.8-.8,1.8-1.1,2.5l-.2.5h-.5c-.6,0-1.1-.2-1.6-.2-1,0-2,.5-2.8,1.3s-.9,1.4-1.1,2.1c-.4,1.1-.4,2.3-.3,3.2,0,.8.2,1.5.3,2.2v.7c0,0,0,.2,0,.3l-.8.4-.3.2h-.2c-.6.4-1.2.8-1.7,1.2-.6.5-1.1,1.1-1.4,1.8-.4.9-.6,1.8-.6,2.5s0,1.2.3,1.9c0,.3.2.5.4.8.2.4.5.7.8,1.1.4.4.9.8,1.6,1.2,1,.6,2.1,1,3,1.4,1.5.6,2.6,1,3.8,1.3,1.3.3,2.6.4,4,.4h.4c-1.5.4-2.8.9-3.8,1.4h-.3c-.3.3-.5.3-.6.4l-.7.3-.7.4-.3.2c-.4,0-.8.3-1.2.5-1.4.6-2.6,1.2-3.6,2.1-.6.6-1.1,1.2-1.5,1.9-.4.8-.7,1.4-.7,2v1c0,.3,0,.6.2,1.1,0,.3.2.6.4.9.2.3.5.7.8,1,.6.6,1.4.9,2,1.2.4.2.8.3,1.2.4l.7.2-.3.4v.2c-.2.1-.2.2-.2.3-.2.5-.5,1.1-.6,1.6-.3,1-.4,2.1-.3,3.2,0,.4.2.8.4,1.3,0,0,0,.2,0,.2.2.3.5.6.9.9.5.3,1.1.4,1.4.4h2.5v.7c0,.4,0,.8.2,1.1,0,.5.2,1,.5,1.6.2.5.4.9.7,1.4,0,.1,0,.2.2.3.3.5.7.9,1.2,1.2.3.2.7.3,1.2.5.5,0,1.1.1,1.6,0,.6,0,1.2-.3,1.9-.6,1.2-.6,2.2-1.3,3-2,1.1-.9,2-1.8,2.7-2.7.8-1,1.5-2.1,2.2-3.5.7-1.3,1.3-2.6,1.9-3.8l.4-.9v-.3c0,0,.3-.3.3-.3-.2.7-.3,1.5-.4,2.2-.2,2,0,3.7.2,5.2.2.8.4,1.6.9,2.6,0,.3.3.5.4.8.3.5.6.9,1,1.2,1.6,1.5,3.8,1.9,5.6,1,1.5-.7,2.6-2.1,3-3.9v-.5c0,0,.2-.2.2-.2h0c0,.3.3.4.5.6.7.6,1.3.9,1.8,1.2.6.3,1.3.6,2.1.9.7.2,1.4.4,2.4.4h1.2c.4,0,.7,0,.9-.1.3,0,.6-.2.9-.3h.2c.2-.2.4-.4.6-.6.2-.2.3-.4.5-.6.3-.4.5-.8.6-1.3.3-1,.1-2,0-2.8,0-.6-.3-1.3-.5-1.8h.5c1,0,1.9-.1,3-.3,1.4-.3,2.5-.7,3.2-1.4,1.5-1.2,1.5-3.3,0-6.2h-.2Z"/>
    <path class="st10" d="M92.8,133.4c-.3.3-.7.5-1,.8h0c-.3.2-.6.5-.9.8h0c2-2.5,4.2-4.8,6.8-6.7.6-.5,1.3-.9,1.9-1.3-.3-.3-.6-.7-.8-1-.7-1.2-.9-2.5-.5-3.7.4-1.3,1.4-2.3,2.5-3.1-.4,0-.8-.2-1.2-.3-2.2-.6-4.4-1.8-6.3-3h0c2.3.5,4.7.8,7,1.5.8.2,1.6.5,2.4.7.4-.2.7-.4,1.1-.5-1.5-1-2.8-2.2-3.7-3.7-.5-.9-.9-1.9-1.2-3h0c.3.5.6,1,1,1.5,1.5,1.7,3.2,3.2,4.9,4.7,1.8-.6,3.9-1,5.6,0,.7.4,1.4,1.1,2.1,1.9.4-1,.9-2,1.3-2.9,1.5-3.1,3.4-5.9,5.4-8.7h0c-1.7,4.4-3.4,9-5.9,13,0,.2.2.4.3.5,2.8-1.2,5.6-2.3,8.4-3.4h0c-1.7,1.3-3.5,2.5-5.5,3.4-.8.4-1.7.7-2.5,1,.4,1.1.7,2.8,0,4.4-.3.8-.9,1.4-1.6,1.9.8.9,1.5,1.8,2.2,2.8,1,1.5,1.7,3.1,2.6,4.7h0c-1.5-1.4-2.7-3-3.8-4.7-.5-.8-1-1.7-1.4-2.6-.4.2-.8.4-1.2.6.2,1,.4,1.9.5,2.9.3,2,.4,3.9.6,5.9,0,.3,0,.5,0,.8h0c0,.2,0,.5,0,.7h0c-1.6-3.1-2.2-6.5-2.4-9.9-1.4.5-2.7.6-4,.5-1.1-.1-2.1-.4-2.8-.7-.4-.1-.8-.2-1.2-.4-.3.5-.6,1-.9,1.5-1.2,2.1-2.4,4.1-3.8,6.1h0c.6-1.2,1.1-2.4,1.7-3.7.4-1,.9-2,1.4-2.9.3-.5.6-.9.9-1.3-.4-.2-.8-.5-1.1-.8-.4.3-.8.6-1.2.8-2.1,1.7-4.2,3.3-6.4,4.9h.5ZM92.8,133.4h0ZM99.2,128.4h0Z"/>
    <path class="st29" d="M505.9,174.8s.5,6,5.2,12.9c4.7,6.9,9.6,8,11.2,8.5s2.3-6.1,1.7-6.7-9.8-12.7-9.8-12.7l-8.3-2.1h0Z"/>
    <path class="st34" d="M524.4,167l-18.5,7.8s.5,5.8,6.9,12.2,11.1,9.1,14.7,10.6c2.9,1.2,3.6-9.9,2.1-17.1-1.5-7.2-5.2-13.5-5.2-13.5Z"/>
    <path class="st29" d="M528.9,192.3c-1.2-2.1-3.1-3.9-4.6-5.6,0,3.6,1.1,7.2,3.5,10,.9,1.1,2,1.1,2.3-.4.3-1-.7-3.1-1.2-3.9h0Z"/>
    <path class="st29" d="M564.9,207.1s-5.4,2.7-13.7,2.3-11.8-4-13.1-5.1,4-5.2,4.8-4.9,15.9,1.7,15.9,1.7l6.1,6Z"/>
    <path class="st34" d="M562,187.3l3,19.8s-5.2,2.7-14,.5c-8.8-2.1-13.6-4.7-16.7-7-2.6-1.9,6.6-8.3,13.5-10.7s14.2-2.6,14.2-2.6Z"/>
    <path class="st29" d="M538,196.8c2.4,0,4.9.7,7.2,1-3,2-6.7,2.8-10.3,2.2-1.4-.2-1.9-1.1-.9-2.2.7-.8,3-1,4-1Z"/>
    <path class="st34" d="M485.1,194.1s3,5,6,7.2,4.1,3,4.1,3c0,0-1.3,1-3.2,4.5-2,3.5-3.6,7.8-3.6,7.8,0,0,7.5-3.6,13.1-4.9,5.6-1.3,11.9-2.8,17.9-5.7,5.9-3,7.9-5.6,7.9-5.6l2.5-4.5s-6-4.5-20.7-3.8c-14.6.7-23.9,2-23.9,2h-.1Z"/>
    <path class="st29" d="M520.8,197.1c-3,.7-5.7,2-8.4,3.2.5,0,1.1-.1,1.6-.2,4.5-1.1,9-1.1,13.6-1.4,2.3-.2,1.4-1.7-.6-2-2.1-.3-4.3,0-6.3.5h.1Z"/>
    <path class="st34" d="M559.4,234.9s-5.8,0-9.3-1.3c-3.5-1.4-4.7-1.9-4.7-1.9,0,0,0,1.6-2.1,5.1s-4.7,7.2-4.7,7.2c0,0-.9-8.3-2.7-13.7s-3.9-11.6-4.4-18.2c-.6-6.6.6-9.7.6-9.7l2.5-4.5s6.9,2.8,14,15.7c7.1,12.8,10.8,21.4,10.8,21.4h0Z"/>
    <path class="st29" d="M536.5,204.5c.5,2.3.6,4.6.7,6.9-.2-.4-.3-.7-.4-1.1-.8-3.4-2.3-6.4-3.7-9.6s.6-1.7,1.5-.5,1.5,2.8,1.8,4.3h.1Z"/>
    <path class="st17" d="M530.1,192.5l-3.2,8,4.9,2.5,5-6.9-6.6-3.7h-.1Z"/>
    <path class="st4" d="M529.3,201.8c-4.7-2.7-10.8-1-13.5,3.7-2.5,4.5-1.2,10,2.9,12.9l1.3-2.3c-.2-.5-.2-1,0-1.5.5-.8,1.5-1.1,2.3-.6s1.1,1.5.6,2.3c-.3.5-.7.7-1.2.8l-1.3,2.3c4.6,2,10,.3,12.5-4.2,2.7-4.7,1-10.8-3.7-13.5h.1Z"/>
    <path class="st4" d="M531.2,198.5c-1.2-.7-2.8-.3-3.5,1-.7,1.2-.3,2.8,1,3.5,1.2.7,2.8.3,3.5-1,.7-1.2.3-2.8-1-3.5ZM529.3,201.9c-.6-.4-.9-1.2-.5-1.8s1.2-.9,1.8-.5.9,1.2.5,1.8-1.2.9-1.8.5Z"/>
    <path class="st19" d="M526.8,201.8s-4.5-.9-8.3,1.7c0,0,.8,1.4,2.1,2,0,0,2.4-3.2,6.2-3.7Z"/>
    <path class="st22" d="M531.1,203s4.3,16-10.6,16.4c4.6,2,10,.3,12.5-4.2,2.3-4.1,1.4-9.2-2-12.2h0Z"/>
    <path class="st24" d="M516.7,204.2s6,6.2,17,9.6c0,0,.9,2.5-1.9,3.1,0,0-8.8-2.8-16.8-9.5,0,0-.9-2.8,1.7-3.2h0Z"/>
    <path class="st4" d="M517.4,206.6s6,5.2,14.4,7.9c0,0-6.7,0-14.4-7.9Z"/>
    <path class="st17" d="M530.1,192.5l-3.2,8,4.9,2.5,5-6.9-6.6-3.7h-.1Z"/>
  </g>
</svg>